<?xml version="1.0" encoding="iso-8859-1"?>
<svg version="1.1" fill="#fff" id="Layer_1" xmlns="http://www.w3.org/2000/svg" xmlns:xlink="http://www.w3.org/1999/xlink" x="0px" y="0px"
	 viewBox="0 0 512.002 512.002" style="enable-background:new 0 0 512.002 512.002;" xml:space="preserve">
<g>
	<g>
		<path d="M511.169,235.133c-9.882-123.989-110.319-224.427-234.3-234.3C119.327-11.72-11.72,119.327,0.833,276.869
			c9.882,123.981,110.319,224.418,234.3,234.3C392.675,523.722,523.722,392.675,511.169,235.133z M494.623,268.131
			c-5.897,118.69-100.71,216.602-219.17,226.022C128.423,505.853,6.141,383.57,17.84,236.541
			c9.421-118.46,107.332-213.274,226.022-219.179C311.412,14,373.296,38.875,418.727,81.191L278.064,221.863h-47.667
			c-4.71,0-8.533,3.823-8.533,8.533v51.2c0,4.71,3.823,8.533,8.533,8.533h51.2c4.71,0,8.533-3.823,8.533-8.533V233.93
			L430.794,93.266C473.11,138.698,497.985,200.581,494.623,268.131z"/>
	</g>
</g>
<g>
</g>
<g>
</g>
<g>
</g>
<g>
</g>
<g>
</g>
<g>
</g>
<g>
</g>
<g>
</g>
<g>
</g>
<g>
</g>
<g>
</g>
<g>
</g>
<g>
</g>
<g>
</g>
<g>
</g>
</svg>
